<svg width="68" height="68" viewBox="0 0 68 68" fill="none" xmlns="http://www.w3.org/2000/svg">
<g clip-path="url(#clip0_6_197)">
<path d="M34 68C43.0174 68 51.6654 64.4179 58.0416 58.0416C64.4179 51.6654 68 43.0174 68 34C68 24.9826 64.4179 16.3346 58.0416 9.95837C51.6654 3.58213 43.0174 0 34 0C24.9826 0 16.3346 3.58213 9.95837 9.95837C3.58213 16.3346 0 24.9826 0 34C0 43.0174 3.58213 51.6654 9.95837 58.0416C16.3346 64.4179 24.9826 68 34 68ZM49.0078 27.7578L32.0078 44.7578C30.7594 46.0062 28.7406 46.0062 27.5055 44.7578L19.0055 36.2578C17.757 35.0094 17.757 32.9906 19.0055 31.7555C20.2539 30.5203 22.2727 30.507 23.5078 31.7555L29.75 37.9977L44.4922 23.2422C45.7406 21.9937 47.7594 21.9937 48.9945 23.2422C50.2297 24.4906 50.243 26.5094 48.9945 27.7445L49.0078 27.7578Z" fill="#14FF00"/>
</g>
<defs>
<clipPath id="clip0_6_197">
<rect width="68" height="68" fill="white"/>
</clipPath>
</defs>
</svg>
